<svg width="34" height="34" viewBox="0 0 34 34" fill="none" xmlns="http://www.w3.org/2000/svg">
<circle cx="17" cy="17" r="17" fill="#272727"/>
<g clip-path="url(#clip0_571_330)">
<path d="M16.9961 11.7227L17.3516 11.1094C17.5703 10.7266 18.0586 10.5977 18.4414 10.8164C18.8242 11.0352 18.9531 11.5234 18.7344 11.9062L15.3164 17.8242H17.7891C18.5898 17.8242 19.0391 18.7656 18.6914 19.418H11.4453C11.0039 19.418 10.6484 19.0625 10.6484 18.6211C10.6484 18.1797 11.0039 17.8242 11.4453 17.8242H13.4766L16.0781 13.3164L15.2656 11.9062C15.0469 11.5234 15.1758 11.0391 15.5586 10.8164C15.9414 10.5977 16.4258 10.7266 16.6484 11.1094L16.9961 11.7227ZM13.9219 20.2383L13.1562 21.5664C12.9375 21.9492 12.4492 22.0781 12.0664 21.8594C11.6836 21.6406 11.5547 21.1523 11.7734 20.7695L12.3438 19.7852C12.9844 19.5859 13.5078 19.7383 13.9219 20.2383ZM20.5195 17.8281H22.5938C23.0352 17.8281 23.3906 18.1836 23.3906 18.625C23.3906 19.0664 23.0352 19.4219 22.5938 19.4219H21.4414L22.2188 20.7695C22.4375 21.1523 22.3086 21.6367 21.9258 21.8594C21.543 22.0781 21.0586 21.9492 20.8359 21.5664C19.5273 19.2969 18.543 17.5977 17.8906 16.4648C17.2227 15.3125 17.6992 14.1562 18.1719 13.7656C18.6953 14.6641 19.4766 16.0195 20.5195 17.8281ZM17 7.3125C11.6484 7.3125 7.3125 11.6484 7.3125 17C7.3125 22.3516 11.6484 26.6875 17 26.6875C22.3516 26.6875 26.6875 22.3516 26.6875 17C26.6875 11.6484 22.3516 7.3125 17 7.3125ZM25.4375 17C25.4375 21.6367 21.6836 25.4375 17 25.4375C12.3633 25.4375 8.5625 21.6836 8.5625 17C8.5625 12.3633 12.3164 8.5625 17 8.5625C21.6367 8.5625 25.4375 12.3164 25.4375 17Z" fill="white"/>
</g>
<defs>
<clipPath id="clip0_571_330">
<rect width="20" height="20" fill="white" transform="translate(7 7)"/>
</clipPath>
</defs>
</svg>
