<svg width="34" height="35" viewBox="0 0 34 35" fill="none" xmlns="http://www.w3.org/2000/svg">
<ellipse cx="17" cy="17.5" rx="17" ry="17.5" fill="#272727"/>
<g clip-path="url(#clip0_571_395)">
<path d="M26.5872 15.5076C26.1368 15.1951 25.1047 15.0779 24.2978 15.2341C24.204 14.4529 23.7724 13.7694 23.0218 13.1639L22.5902 12.8514L22.2899 13.3006C21.9147 13.8866 21.727 14.7069 21.7833 15.4881C21.802 15.7615 21.8958 16.2498 22.1773 16.6795C21.9147 16.8357 21.3704 17.031 20.6574 17.031H7.09021L7.05271 17.1873C6.92131 17.9684 6.92131 20.4098 8.46006 22.2847C9.62349 23.7104 11.3499 24.433 13.6204 24.433C18.5369 24.433 22.1773 22.0698 23.885 17.7927C24.5605 17.8122 26.0054 17.7927 26.7373 16.3278C26.7561 16.2888 26.7936 16.2106 26.9249 15.9177L27 15.7615L26.5872 15.5076ZM17.9364 10H15.8723V11.953H17.9364V10ZM17.9364 12.3437H15.8723V14.2967H17.9364V12.3436V12.3437ZM15.4969 12.3437H13.4329V14.2967H15.4969V12.3436V12.3437ZM13.0575 12.3437H10.9933V14.2967H13.0575V12.3436V12.3437ZM10.618 14.6873H8.55388V16.6404H10.6179V14.6873L10.618 14.6873ZM13.0575 14.6873H10.9933V16.6404H13.0575V14.6873V14.6873ZM15.4969 14.6873H13.4329V16.6404H15.4969V14.6873V14.6873ZM17.9365 14.6873H15.8722V16.6404H17.9365V14.6873V14.6873ZM20.3759 14.6873H18.3117V16.6404H20.3759V14.6873V14.6873Z" fill="#2396ED"/>
</g>
<defs>
<clipPath id="clip0_571_395">
<rect width="20" height="14.4531" fill="white" transform="translate(7 10)"/>
</clipPath>
</defs>
</svg>
