<svg width="34" height="35" viewBox="0 0 34 35" fill="none" xmlns="http://www.w3.org/2000/svg">
<ellipse cx="17" cy="17.5" rx="17" ry="17.5" fill="#272727"/>
<path d="M23.9306 17.3662C23.9306 16.9342 23.759 16.52 23.4536 16.2145C23.1481 15.9091 22.7339 15.7375 22.3019 15.7375C22.2447 15.7374 22.1875 15.7403 22.1306 15.7462L24.3681 9.14746H14.86L17.0944 15.7406C17.0619 15.7406 17.0288 15.7375 16.9956 15.7375C16.6067 15.737 16.2304 15.8758 15.9349 16.1286C15.6394 16.3815 15.4441 16.7318 15.3843 17.1161C15.3246 17.5004 15.4044 17.8935 15.6093 18.2241C15.8141 18.5547 16.1305 18.8011 16.5013 18.9187C16.1548 19.5153 15.7234 20.0582 15.2206 20.5306C14.5662 21.1562 13.7886 21.6387 12.9375 21.9475C12.4606 21.7215 12.0877 21.3224 11.8944 20.8314C11.7011 20.3403 11.702 19.7941 11.8969 19.3037C11.945 19.1912 11.9938 19.0775 12.04 18.9637C12.4032 18.8782 12.726 18.6706 12.9545 18.3757C13.183 18.0808 13.3034 17.7164 13.2955 17.3434C13.2876 16.9703 13.152 16.6113 12.9113 16.3263C12.6705 16.0413 12.3392 15.8475 11.9728 15.7774C11.6063 15.7073 11.2269 15.765 10.898 15.941C10.569 16.117 10.3103 16.4005 10.1653 16.7443C10.0203 17.088 9.99757 17.4711 10.101 17.8296C10.2045 18.188 10.4278 18.5001 10.7338 18.7137C10.2139 19.6564 9.81708 20.6619 9.55314 21.7056C9.33189 23.04 9.55314 24.4556 10.7063 25.2562C13.3938 27.1193 16.3119 24.1012 19.3881 23.3431C20.5031 23.0681 21.7269 23.1125 22.7088 22.5437C23.0635 22.3417 23.3694 22.064 23.6048 21.7305C23.8401 21.3969 23.9992 21.0156 24.0706 20.6137C24.136 20.2307 24.1237 19.8385 24.0344 19.4604C23.9452 19.0822 23.7809 18.7259 23.5513 18.4125C23.7963 18.1196 23.9304 17.7499 23.93 17.3681L23.9306 17.3662ZM18.625 17.375V17.3693C18.6255 17.089 18.5534 16.8134 18.4159 16.5692C18.2783 16.325 18.0799 16.1205 17.84 15.9756L19.6175 12.375L21.3988 16.0087C21.1753 16.1572 20.9921 16.3587 20.8655 16.5953C20.7388 16.8318 20.6728 17.096 20.6731 17.3643V17.4L18.625 17.375Z" fill="#C63D14"/>
<path d="M24.3291 17.3663C24.3285 16.894 24.1632 16.4367 23.8616 16.0733C23.5601 15.7098 23.1413 15.4628 22.6772 15.375L24.9235 8.75H14.306L16.556 15.3881C16.1632 15.4759 15.8055 15.6788 15.5284 15.9707C15.2514 16.2627 15.0676 16.6306 15.0005 17.0275C14.9335 17.4243 14.9862 17.8322 15.1519 18.199C15.3176 18.5658 15.5888 18.8749 15.931 19.0869C15.6483 19.5068 15.3196 19.8938 14.951 20.2406C14.3804 20.7866 13.7098 21.2174 12.976 21.5094C12.6316 21.3095 12.3706 20.9925 12.2405 20.6161C12.1104 20.2398 12.1199 19.8293 12.2672 19.4594L12.2922 19.4012L12.3385 19.2919C12.755 19.1475 13.1132 18.8712 13.3587 18.505C13.6042 18.1388 13.7237 17.7026 13.6991 17.2624C13.6745 16.8222 13.5071 16.4021 13.2223 16.0655C12.9375 15.729 12.5508 15.4944 12.1207 15.3973C11.6907 15.3002 11.2407 15.3459 10.8389 15.5275C10.4372 15.709 10.1055 16.0166 9.8942 16.4035C9.68287 16.7904 9.60337 17.2357 9.66775 17.6718C9.73213 18.108 9.93688 18.5113 10.251 18.8206C10.1835 18.965 10.1122 19.1112 10.0391 19.2619C9.63389 20.007 9.33914 20.807 9.16412 21.6369C8.87349 23.3869 9.34224 24.7887 10.4835 25.5794C11.0961 26.0175 11.8309 26.2521 12.5841 26.25C13.9166 26.25 15.2647 25.5806 16.5841 24.9256C17.506 24.4243 18.4785 24.0224 19.4854 23.7269C19.846 23.6381 20.2172 23.5844 20.6104 23.5275C21.4113 23.4635 22.1923 23.2453 22.9104 22.885C23.3153 22.6537 23.6645 22.3361 23.9331 21.9549C24.2017 21.5736 24.3832 21.138 24.4647 20.6788C24.5975 19.8986 24.4442 19.0967 24.0329 18.4206C24.2274 18.1032 24.3302 17.738 24.3297 17.3656L24.3291 17.3663ZM23.5335 17.3663C23.5335 17.6098 23.4613 17.8478 23.326 18.0503C23.1907 18.2528 22.9984 18.4106 22.7734 18.5038C22.5484 18.597 22.3009 18.6214 22.062 18.5738C21.8232 18.5263 21.6038 18.4091 21.4316 18.2369C21.2594 18.0647 21.1422 17.8453 21.0947 17.6065C21.0471 17.3676 21.0715 17.1201 21.1647 16.8951C21.2579 16.6701 21.4157 16.4778 21.6182 16.3425C21.8207 16.2072 22.0587 16.135 22.3022 16.135C22.6287 16.1353 22.9417 16.2652 23.1725 16.496C23.4033 16.7268 23.5332 17.0398 23.5335 17.3663ZM23.8129 9.54562L21.8291 15.3956C21.7442 15.4162 21.6607 15.4423 21.5791 15.4738L19.6197 11.4737L17.6541 15.45C17.5685 15.4203 17.481 15.3965 17.3922 15.3787L15.4154 9.54562H23.8129ZM16.996 16.135C17.2395 16.135 17.4776 16.2072 17.68 16.3425C17.8825 16.4778 18.0403 16.6701 18.1335 16.8951C18.2267 17.1201 18.2511 17.3676 18.2036 17.6065C18.1561 17.8453 18.0388 18.0647 17.8666 18.2369C17.6944 18.4091 17.475 18.5263 17.2362 18.5738C16.9974 18.6214 16.7498 18.597 16.5248 18.5038C16.2998 18.4106 16.1075 18.2528 15.9722 18.0503C15.837 17.8478 15.7647 17.6098 15.7647 17.3663C15.7651 17.0398 15.8949 16.7268 16.1257 16.496C16.3566 16.2652 16.6695 16.1353 16.996 16.135ZM11.6697 16.1469C11.9134 16.147 12.1515 16.2194 12.3539 16.3549C12.5564 16.4904 12.7141 16.6829 12.8071 16.9081C12.9001 17.1333 12.9242 17.381 12.8764 17.6199C12.8286 17.8587 12.7109 18.0781 12.5384 18.2501C12.3659 18.4221 12.1462 18.539 11.9072 18.5861C11.6681 18.6332 11.4205 18.6084 11.1956 18.5147C10.9707 18.421 10.7787 18.2627 10.6438 18.0598C10.5089 17.857 10.4372 17.6186 10.4379 17.375C10.4382 17.0486 10.568 16.7356 10.7989 16.5047C11.0297 16.2739 11.3427 16.1441 11.6691 16.1438L11.6697 16.1469ZM23.6804 20.5431C23.6186 20.8876 23.4818 21.2144 23.2797 21.5001C23.0777 21.7859 22.8152 22.0238 22.511 22.1969C21.8798 22.5033 21.1963 22.6876 20.4966 22.74C20.1016 22.7969 19.6935 22.8556 19.2941 22.9544C18.231 23.2622 17.2042 23.6841 16.2316 24.2125C14.2541 25.1944 12.5441 26.0425 10.9366 24.9269C9.75724 24.1094 9.81162 22.5969 9.94912 21.7681C10.1109 21.0139 10.3808 20.2871 10.7504 19.61L10.9191 19.2606C11.087 19.3277 11.2632 19.3719 11.4429 19.3919C11.2838 19.9537 11.3282 20.5537 11.5684 21.086C11.8085 21.6183 12.2289 22.0487 12.7554 22.3012L12.9085 22.38L13.0704 22.3225C13.9733 21.9966 14.7982 21.4857 15.4922 20.8225C15.9507 20.3912 16.3534 19.9043 16.691 19.3731C17.1229 19.4388 17.5646 19.3631 17.95 19.1572C18.3353 18.9514 18.6438 18.6265 18.8294 18.2309C19.015 17.8354 19.0677 17.3904 18.9797 16.9624C18.8917 16.5345 18.6676 16.1464 18.341 15.8562L19.6147 13.2806L20.9016 15.9056C20.5355 16.2585 20.3155 16.7362 20.2854 17.2438C20.2553 17.7514 20.4172 18.2518 20.7391 18.6455C21.061 19.0391 21.5192 19.2973 22.0227 19.3687C22.5261 19.44 23.038 19.3194 23.4566 19.0306C23.6887 19.4991 23.7664 20.029 23.6785 20.5444L23.6804 20.5431Z" fill="white"/>
</svg>
