<svg width="34" height="35" viewBox="0 0 34 35" fill="none" xmlns="http://www.w3.org/2000/svg">
<ellipse cx="17" cy="17.5" rx="17" ry="17.5" fill="#272727"/>
<path d="M16.967 9.25H17.0077C17.2159 9.34916 17.4186 9.45932 17.6152 9.58L24.4014 13.4838C24.4889 13.5305 24.5604 13.6024 24.6065 13.6902C24.6527 13.778 24.6713 13.8777 24.6602 13.9763C24.6552 16.7194 24.6602 19.4619 24.657 22.2037C24.6276 22.3346 24.5476 22.4485 24.4345 22.5206C22.0291 23.9056 19.6235 25.2898 17.2177 26.6731C17.1594 26.7176 17.0891 26.7435 17.0159 26.7476C16.9427 26.7518 16.87 26.7339 16.807 26.6962C14.3987 25.3154 11.9927 23.9321 9.58891 22.5463C9.51079 22.5093 9.44535 22.4501 9.40086 22.376C9.35637 22.3019 9.33481 22.2163 9.33891 22.13V13.9031C9.33301 13.8172 9.35288 13.7314 9.39596 13.6569C9.43905 13.5823 9.50339 13.5222 9.58078 13.4844C11.8399 12.1852 14.0991 10.8852 16.3583 9.58438C16.5595 9.46938 16.757 9.3475 16.967 9.25Z" fill="#019639"/>
<path d="M12.4797 14.5862V21.3731C12.4769 21.4984 12.499 21.623 12.5448 21.7397C12.5906 21.8563 12.6592 21.9627 12.7466 22.0525C12.9141 22.218 13.1333 22.321 13.3676 22.3444C13.6019 22.3679 13.8372 22.3103 14.0341 22.1812C14.166 22.0916 14.2739 21.9712 14.3485 21.8303C14.4231 21.6895 14.4622 21.5325 14.4622 21.3731C14.4622 19.7356 14.4591 18.0981 14.4622 16.4606C15.9552 18.2481 17.4512 20.0331 18.9504 21.8156C19.1587 22.0266 19.4166 22.1819 19.7005 22.2673C19.9844 22.3527 20.2852 22.3655 20.5754 22.3044C20.7802 22.264 20.9667 22.159 21.1075 22.0047C21.2482 21.8505 21.3358 21.6552 21.3572 21.4475C21.3606 19.1387 21.3606 16.8302 21.3572 14.5219C21.3357 14.2755 21.2226 14.0461 21.0403 13.879C20.8579 13.7118 20.6196 13.6191 20.3722 13.6191C20.1249 13.6191 19.8865 13.7118 19.7042 13.879C19.5219 14.0461 19.4088 14.2755 19.3872 14.5219C19.3872 16.1856 19.3772 17.8475 19.3872 19.5106C17.921 17.7819 16.4729 16.0381 15.0122 14.3031C14.8197 14.0562 14.5647 13.8651 14.2737 13.7495C13.9827 13.6339 13.6661 13.5981 13.3566 13.6456C13.1222 13.6717 12.9048 13.7809 12.7439 13.9535C12.5831 14.126 12.4894 14.3505 12.4797 14.5862Z" fill="white"/>
</svg>
