<svg width="34" height="34" viewBox="0 0 34 34" fill="none" xmlns="http://www.w3.org/2000/svg">
<circle cx="17" cy="17" r="17" fill="#272727"/>
<path d="M17 8.54175C16.775 8.54175 16.5417 8.60008 16.35 8.70841L10.15 12.2917C9.75 12.5251 9.5 12.9584 9.5 13.4251V20.5751C9.5 21.0417 9.75 21.4751 10.15 21.7084L11.775 22.6417C12.5667 23.0251 12.8333 23.0334 13.2 23.0334C14.3667 23.0334 15.0417 22.3251 15.0417 21.0917V14.0334C15.0417 13.9334 14.9583 13.8501 14.8583 13.8501H14.0833C13.975 13.8501 13.8917 13.9334 13.8917 14.0334V21.0917C13.8917 21.6417 13.325 22.1834 12.4167 21.7251L10.7083 20.7501C10.6803 20.7303 10.6573 20.7041 10.6414 20.6736C10.6255 20.6432 10.617 20.6094 10.6167 20.5751V13.4251C10.6167 13.3501 10.65 13.2834 10.7083 13.2501L16.9083 9.67508C16.9583 9.64175 17.0417 9.64175 17.0917 9.67508L23.2917 13.2501C23.35 13.2834 23.3833 13.3501 23.3833 13.4251V20.5751C23.3833 20.6417 23.35 20.7084 23.2917 20.7501L17.0917 24.3251C17.0417 24.3584 16.9583 24.3584 16.9 24.3251L15.3333 23.3751C15.2667 23.3501 15.2 23.3417 15.1583 23.3667C14.7167 23.6167 14.6333 23.6667 14.225 23.7917C14.125 23.8251 13.9667 23.8834 14.2833 24.0584L16.35 25.2834C16.55 25.4001 16.7667 25.4584 17 25.4584C17.2333 25.4584 17.45 25.4001 17.65 25.2834L23.85 21.7084C24.25 21.4751 24.5 21.0417 24.5 20.5751V13.4251C24.5 12.9584 24.25 12.5251 23.85 12.2917L17.65 8.70841C17.4583 8.60008 17.2333 8.54175 17 8.54175ZM18.6667 13.6667C16.9 13.6667 15.8417 14.4084 15.8417 15.6584C15.8417 17.0001 16.8917 17.3917 18.5917 17.5584C20.6167 17.7584 20.775 18.0584 20.775 18.4584C20.775 19.1501 20.2167 19.4417 18.9167 19.4417C17.2667 19.4417 16.9167 19.0334 16.7917 18.2167C16.7829 18.1745 16.7599 18.1366 16.7265 18.1093C16.6932 18.082 16.6514 18.067 16.6083 18.0667H15.8083C15.7083 18.0667 15.6333 18.1417 15.6333 18.2501C15.6333 19.2834 16.2 20.5334 18.9167 20.5334C20.875 20.5334 22 19.7584 22 18.4084C22 17.0667 21.1 16.7167 19.1917 16.4584C17.2667 16.2084 17.075 16.0751 17.075 15.6251C17.075 15.2501 17.2417 14.7501 18.6667 14.7501C19.9167 14.7501 20.4083 15.0251 20.6 15.8834C20.6167 15.9667 20.6917 16.0251 20.775 16.0251H21.5833C21.625 16.0251 21.675 16.0084 21.7083 15.9667C21.7417 15.9334 21.7667 15.8834 21.75 15.8334C21.6333 14.3501 20.65 13.6667 18.6667 13.6667Z" fill="#68A063"/>
</svg>
