<svg width="34" height="34" viewBox="0 0 34 34" fill="none" xmlns="http://www.w3.org/2000/svg">
<circle cx="17" cy="17" r="17" fill="#272727"/>
<path d="M9 9.04326V23.9562C9.0001 23.9886 9.00975 24.0202 9.02774 24.0471C9.04573 24.074 9.07126 24.0949 9.10113 24.1074C9.13099 24.1198 9.16387 24.1232 9.19563 24.117C9.22739 24.1108 9.25663 24.0954 9.27967 24.0727L17.0446 16.5001L9.27967 8.92676C9.25663 8.90405 9.22739 8.88864 9.19563 8.88247C9.16387 8.87631 9.13099 8.87965 9.10113 8.89209C9.07126 8.90453 9.04573 8.92552 9.02774 8.95241C9.00975 8.9793 9.0001 9.01091 9 9.04326ZM20.3004 13.3885L10.5642 8.0244L10.5581 8.02098C10.3904 7.92991 10.231 8.15683 10.3683 8.28889L18.0005 15.5867L20.3004 13.3885ZM10.3691 24.7113C10.231 24.8434 10.3904 25.0703 10.5588 24.9792L10.5649 24.9758L20.3004 19.6117L18.0005 17.4127L10.3691 24.7113ZM24.2309 15.5515L21.5121 14.0541L18.9556 16.5001L21.5121 18.945L24.2309 17.4488C24.9705 17.0401 24.9705 15.9601 24.2309 15.5515Z" fill="white"/>
</svg>
