<svg width="34" height="34" viewBox="0 0 34 34" fill="none" xmlns="http://www.w3.org/2000/svg">
<circle cx="17" cy="17" r="17" fill="#272727"/>
<g clip-path="url(#clip0_571_370)">
<path d="M24.8946 21.72L18.25 7.60936C18.1674 7.43574 18.0395 7.28766 17.8796 7.18081C17.7198 7.07396 17.5341 7.0123 17.3421 7.00236C17.1497 6.98947 16.9575 7.02957 16.7863 7.1183C16.6152 7.20702 16.4716 7.34099 16.3713 7.50561L9.16457 19.178C9.05499 19.3543 8.99792 19.5581 9.00006 19.7656C9.00219 19.9732 9.06345 20.1758 9.17663 20.3497L12.7 25.806C12.8333 26.0109 13.0292 26.1671 13.2586 26.2515C13.488 26.3358 13.7385 26.3438 13.9727 26.2741L24.1976 23.2496C24.3516 23.2046 24.4941 23.1271 24.6155 23.0222C24.7369 22.9174 24.8344 22.7877 24.9014 22.642C24.9674 22.497 25.0011 22.3394 25 22.18C24.9989 22.0207 24.9631 21.8636 24.8951 21.7195L24.8946 21.72ZM23.4069 22.3252L14.7305 24.8908C14.4658 24.9695 14.2118 24.7401 14.2668 24.473L17.3667 9.63023C17.4246 9.35255 17.8081 9.30855 17.9294 9.56555L23.6678 21.7514C23.6931 21.8057 23.7064 21.8648 23.7067 21.9247C23.707 21.9847 23.6943 22.0439 23.6695 22.0985C23.6446 22.153 23.6083 22.2015 23.5629 22.2407C23.5175 22.2798 23.4641 22.3086 23.4065 22.3251H23.4069V22.3252Z" fill="white"/>
</g>
<defs>
<clipPath id="clip0_571_370">
<rect width="16" height="19.375" fill="white" transform="translate(9 7)"/>
</clipPath>
</defs>
</svg>
