<svg width="34" height="35" viewBox="0 0 34 35" fill="none" xmlns="http://www.w3.org/2000/svg">
<ellipse cx="17" cy="17.5" rx="17" ry="17.5" fill="#272727"/>
<path d="M25.6773 11.8412L17.4635 26.5287C17.4249 26.5978 17.3687 26.6554 17.3006 26.6955C17.2324 26.7357 17.1548 26.7571 17.0757 26.7574C16.9966 26.7577 16.9188 26.737 16.8503 26.6973C16.7818 26.6577 16.7251 26.6006 16.686 26.5318L8.30976 11.8424C8.26765 11.7687 8.24743 11.6845 8.25149 11.5998C8.25554 11.515 8.28369 11.4331 8.33264 11.3637C8.38158 11.2944 8.4493 11.2404 8.52783 11.2082C8.60636 11.176 8.69246 11.1668 8.77601 11.1818L16.9985 12.6518C17.0508 12.6612 17.1044 12.6612 17.1566 12.6518L25.2073 11.1843C25.2905 11.1691 25.3763 11.1779 25.4548 11.2096C25.5332 11.2413 25.601 11.2947 25.6503 11.3635C25.6995 11.4322 25.7282 11.5136 25.733 11.5981C25.7378 11.6826 25.7185 11.7667 25.6773 11.8406V11.8412Z" fill="url(#paint0_linear_571_81)"/>
<path d="M20.9148 9.25437L14.8373 10.445C14.7887 10.4545 14.7446 10.4799 14.712 10.5173C14.6794 10.5546 14.6602 10.6018 14.6573 10.6512L14.2836 16.9662C14.2815 17.0009 14.2876 17.0355 14.3013 17.0674C14.3149 17.0993 14.3359 17.1276 14.3624 17.15C14.3889 17.1724 14.4203 17.1883 14.454 17.1964C14.4877 17.2046 14.5229 17.2047 14.5567 17.1969L16.2486 16.8062C16.285 16.7978 16.323 16.7987 16.359 16.8088C16.3951 16.8189 16.428 16.8379 16.4547 16.864C16.4815 16.8902 16.5013 16.9226 16.5122 16.9584C16.5231 16.9942 16.5249 17.0321 16.5173 17.0687L16.0148 19.5306C16.0071 19.5685 16.0093 19.6078 16.0213 19.6446C16.0333 19.6813 16.0547 19.7144 16.0833 19.7404C16.1119 19.7664 16.1468 19.7846 16.1846 19.793C16.2223 19.8015 16.2616 19.8 16.2986 19.7887L17.3436 19.4712C17.3807 19.4599 17.42 19.4584 17.4578 19.4669C17.4957 19.4754 17.5306 19.4936 17.5592 19.5197C17.5879 19.5458 17.6092 19.579 17.6212 19.6158C17.6331 19.6527 17.6352 19.6921 17.6273 19.73L16.828 23.5969C16.778 23.8387 17.0998 23.9706 17.2342 23.7637L17.3236 23.625L22.2767 13.7406C22.2953 13.7034 22.3031 13.6617 22.2993 13.6202C22.2954 13.5788 22.28 13.5392 22.2548 13.5061C22.2297 13.4729 22.1957 13.4475 22.1569 13.4326C22.118 13.4177 22.0757 13.414 22.0348 13.4219L20.293 13.7575C20.2555 13.7647 20.2168 13.7621 20.1805 13.75C20.1443 13.738 20.1118 13.7168 20.0861 13.6886C20.0604 13.6604 20.0423 13.6261 20.0337 13.5889C20.0251 13.5517 20.0261 13.5129 20.0367 13.4762L21.173 9.535C21.1837 9.49821 21.1847 9.45929 21.176 9.42198C21.1673 9.38467 21.1492 9.35022 21.1233 9.32197C21.0974 9.29371 21.0647 9.27259 21.0283 9.26064C20.9919 9.24869 20.9531 9.24632 20.9155 9.25375L20.9148 9.25437Z" fill="url(#paint1_linear_571_81)"/>
<defs>
<linearGradient id="paint0_linear_571_81" x1="8.10509" y1="10.6567" x2="18.3271" y2="24.539" gradientUnits="userSpaceOnUse">
<stop stop-color="#41D1FF"/>
<stop offset="1" stop-color="#BD34FE"/>
</linearGradient>
<linearGradient id="paint1_linear_571_81" x1="16.5261" y1="9.57736" x2="18.3752" y2="22.262" gradientUnits="userSpaceOnUse">
<stop stop-color="#FFEA83"/>
<stop offset="0.083" stop-color="#FFDD35"/>
<stop offset="1" stop-color="#FFA800"/>
</linearGradient>
</defs>
</svg>
